<svg xmlns="http://www.w3.org/2000/svg" width="68.45" height="68.45" viewBox="0 0 68.45 68.45"><defs><style>.a,.b{fill:none;}.a{stroke:#292d32;stroke-linecap:round;stroke-linejoin:round;stroke-width:1.5px;}.b{opacity:0;}</style></defs><g transform="translate(0)"><path class="a" d="M49.37,22.788H7.644A7.662,7.662,0,0,1,0,15.145v-7.5A7.662,7.662,0,0,1,7.644,0H49.37a7.662,7.662,0,0,1,7.644,7.644v7.5A7.681,7.681,0,0,1,49.37,22.788Z" transform="translate(5.733 5.733)"/><path class="a" d="M49.37,22.788H7.644A7.662,7.662,0,0,1,0,15.145v-7.5A7.662,7.662,0,0,1,7.644,0H49.37a7.662,7.662,0,0,1,7.644,7.644v7.5A7.681,7.681,0,0,1,49.37,22.788Z" transform="translate(5.733 39.958)"/><path class="a" d="M0,0V5.7" transform="translate(17.112 14.26)"/><path class="a" d="M0,0V5.7" transform="translate(28.521 14.26)"/><path class="a" d="M0,0V5.7" transform="translate(17.112 48.485)"/><path class="a" d="M0,0V5.7" transform="translate(28.521 48.485)"/><path class="a" d="M0,0H11.408" transform="translate(39.929 17.112)"/><path class="a" d="M0,0H11.408" transform="translate(39.929 51.337)"/><path class="b" d="M0,0H68.45V68.45H0Z"/></g></svg>